<svg width="94" height="86" viewBox="0 0 94 86" fill="none" xmlns="http://www.w3.org/2000/svg">
<path d="M35 4H67" stroke="black" stroke-width="4" stroke-linecap="square"/>
<path d="M56 5H71" stroke="black" stroke-width="4" stroke-linecap="square"/>
<path d="M62 8H75" stroke="black" stroke-width="4" stroke-linecap="square"/>
<path d="M69 10H79" stroke="black" stroke-width="4" stroke-linecap="square"/>
<path d="M39 10H68" stroke="black" stroke-width="4" stroke-linecap="square"/>
<path d="M35 6H66" stroke="black" stroke-width="4" stroke-linecap="square"/>
<path d="M27 7H40" stroke="black" stroke-width="4" stroke-linecap="square"/>
<path d="M22 11H39" stroke="black" stroke-width="4" stroke-linecap="square"/>
<path d="M19 14H37" stroke="black" stroke-width="4" stroke-linecap="square"/>
<path d="M15 17H35" stroke="black" stroke-width="4" stroke-linecap="square"/>
<path d="M14 20H32" stroke="black" stroke-width="4" stroke-linecap="square"/>
<path d="M17 22H31" stroke="black" stroke-width="4" stroke-linecap="square"/>
<path d="M11 25H17" stroke="black" stroke-width="4" stroke-linecap="square"/>
<path d="M15 29H27" stroke="black" stroke-width="4" stroke-linecap="square"/>
<path d="M12 32H17" stroke="black" stroke-width="4" stroke-linecap="square"/>
<path d="M8 33H21" stroke="black" stroke-width="4" stroke-linecap="square"/>
<path d="M13 36H21" stroke="black" stroke-width="4" stroke-linecap="square"/>
<path d="M11 40H19" stroke="black" stroke-width="4" stroke-linecap="square"/>
<path d="M11 45H20" stroke="black" stroke-width="4" stroke-linecap="square"/>
<path d="M8 47H17" stroke="black" stroke-width="4" stroke-linecap="square"/>
<path d="M10 50H15" stroke="black" stroke-width="4" stroke-linecap="square"/>
<path d="M10 54H17" stroke="black" stroke-width="4" stroke-linecap="square"/>
<path d="M2 57H19" stroke="black" stroke-width="4" stroke-linecap="square"/>
<path d="M8 63H27" stroke="black" stroke-width="4" stroke-linecap="square"/>
<path d="M17 67H30" stroke="black" stroke-width="4" stroke-linecap="square"/>
<path d="M19 70H32" stroke="black" stroke-width="4" stroke-linecap="square"/>
<path d="M20 74H86" stroke="black" stroke-width="4" stroke-linecap="square"/>
<path d="M37 72H78" stroke="black" stroke-width="4" stroke-linecap="square"/>
<path d="M27 78H59" stroke="black" stroke-width="4" stroke-linecap="square"/>
<path d="M29 81H62" stroke="black" stroke-width="4" stroke-linecap="square"/>
<path d="M23 75H28" stroke="black" stroke-width="4" stroke-linecap="square"/>
<path d="M24 76H28" stroke="black" stroke-width="4" stroke-linecap="square"/>
<path d="M65 76H74" stroke="black" stroke-width="4" stroke-linecap="square"/>
<path d="M75 79H80" stroke="black" stroke-width="4" stroke-linecap="square"/>
<path d="M79 82H83" stroke="black" stroke-width="4" stroke-linecap="square"/>
<path d="M41 48H85" stroke="black" stroke-width="4" stroke-linecap="square"/>
<path d="M52 51H84" stroke="black" stroke-width="4" stroke-linecap="square"/>
<path d="M54 46H66" stroke="black" stroke-width="4" stroke-linecap="square"/>
<path d="M56 41H65" stroke="black" stroke-width="4" stroke-linecap="square"/>
<path d="M66 42H82" stroke="black" stroke-width="4" stroke-linecap="square"/>
<path d="M72 45H82" stroke="black" stroke-width="4" stroke-linecap="square"/>
<path d="M61 15H78" stroke="black" stroke-width="4" stroke-linecap="square"/>
<path d="M65 19H76" stroke="black" stroke-width="4" stroke-linecap="square"/>
<path d="M68 22H78" stroke="black" stroke-width="4" stroke-linecap="square"/>
<path d="M76 27H87" stroke="black" stroke-width="4" stroke-linecap="square"/>
<path d="M51 12H74" stroke="black" stroke-width="4" stroke-linecap="square"/>
<path d="M80 23H81" stroke="black" stroke-width="4" stroke-linecap="square"/>
<path d="M65 55H81" stroke="black" stroke-width="4" stroke-linecap="square"/>
<path d="M62 59H74" stroke="black" stroke-width="4" stroke-linecap="square"/>
<path d="M65 65H72" stroke="black" stroke-width="4" stroke-linecap="square"/>
<path d="M59 68H67" stroke="black" stroke-width="4" stroke-linecap="square"/>
<path d="M25 4H38" stroke="#90FCF9" stroke-linecap="square"/>
<path d="M31 4H37" stroke="#90FCF9" stroke-linecap="square"/>
<path d="M41 12H48" stroke="#90FCF9" stroke-linecap="square"/>
<path d="M48 14H58" stroke="#90FCF9" stroke-linecap="square"/>
<path d="M58 18H65" stroke="#90FCF9" stroke-linecap="square"/>
<path d="M52 15H56" stroke="#90FCF9" stroke-linecap="square"/>
<path d="M66 24H75" stroke="#90FCF9" stroke-linecap="square"/>
<path d="M80 20H82" stroke="#90FCF9" stroke-linecap="square"/>
<path d="M39 45H55" stroke="#90FCF9" stroke-linecap="square"/>
<path d="M53 53H63" stroke="#90FCF9" stroke-linecap="square"/>
<path d="M73 58H82" stroke="#90FCF9" stroke-linecap="square"/>
<path d="M72 69H82" stroke="#90FCF9" stroke-linecap="square"/>
<path d="M83 85H91" stroke="#90FCF9" stroke-linecap="square"/>
<path d="M87 84H92" stroke="#90FCF9" stroke-linecap="square"/>
<path d="M88 83H93" stroke="#90FCF9" stroke-linecap="square"/>
<path d="M17 84H36" stroke="#90FCF9" stroke-linecap="square"/>
<path d="M19 84H34" stroke="#90FCF9" stroke-linecap="square"/>
<path d="M19 79H31" stroke="#90FCF9" stroke-linecap="square"/>
<path d="M15 70H19" stroke="#90FCF9" stroke-linecap="square"/>
<path d="M6 66H16" stroke="#90FCF9" stroke-linecap="square"/>
<path d="M1 55H7" stroke="#90FCF9" stroke-linecap="square"/>
<path d="M21 45H28" stroke="#90FCF9" stroke-linecap="square"/>
<path d="M19 45H24" stroke="#90FCF9" stroke-linecap="square"/>
<path d="M20 47H28" stroke="#90FCF9" stroke-linecap="square"/>
<path d="M14 45H22" stroke="#90FCF9" stroke-linecap="square"/>
<path d="M3 36H13" stroke="#90FCF9" stroke-linecap="square"/>
<path d="M4 37H13" stroke="#90FCF9" stroke-linecap="square"/>
<path d="M7 38H12" stroke="#90FCF9" stroke-linecap="square"/>
<path d="M4 30H14" stroke="#90FCF9" stroke-linecap="square"/>
<path d="M14 12H21" stroke="#90FCF9" stroke-linecap="square"/>
<path d="M39 70H56" stroke="#90FCF9" stroke-linecap="square"/>
<path d="M5 11H22" stroke="#9948BC" stroke-linecap="square"/>
<path d="M14 10H22" stroke="#9948BC" stroke-linecap="square"/>
<path d="M15 8H27" stroke="#9948BC" stroke-linecap="square"/>
<path d="M11 8H28" stroke="#9948BC" stroke-linecap="square"/>
<path d="M18 6H30" stroke="#9948BC" stroke-linecap="square"/>
<path d="M14 6H31" stroke="#9948BC" stroke-linecap="square"/>
<path d="M17 4H32" stroke="#9948BC" stroke-linecap="square"/>
<path d="M15 4H29" stroke="#9948BC" stroke-linecap="square"/>
<path d="M23 3H36" stroke="#9948BC" stroke-linecap="square"/>
<path d="M20 3H40" stroke="#9948BC" stroke-linecap="square"/>
<path d="M27 1H39" stroke="#9948BC" stroke-linecap="square"/>
<path d="M16 5H22" stroke="#9948BC" stroke-linecap="square"/>
<path d="M19 6H25" stroke="#9948BC" stroke-linecap="square"/>
<path d="M22 10H29" stroke="#9948BC" stroke-linecap="square"/>
<path d="M48 15H58" stroke="#9948BC" stroke-linecap="square"/>
<path d="M54 16H59" stroke="#9948BC" stroke-linecap="square"/>
<path d="M55 17H62" stroke="#9948BC" stroke-linecap="square"/>
<path d="M14 50H19" stroke="#9948BC" stroke-linecap="square"/>
<path d="M13 51H22" stroke="#9948BC" stroke-linecap="square"/>
<path d="M17 52H24" stroke="#9948BC" stroke-linecap="square"/>
<path d="M27 64H36" stroke="#9948BC" stroke-linecap="square"/>
<path d="M30 64H35" stroke="#9948BC" stroke-linecap="square"/>
<path d="M30 66H37" stroke="#9948BC" stroke-linecap="square"/>
<path d="M31 66H37" stroke="#9948BC" stroke-linecap="square"/>
<path d="M31 67H36" stroke="#9948BC" stroke-linecap="square"/>
<path d="M32 67H36" stroke="#9948BC" stroke-linecap="square"/>
<path d="M28 65H35" stroke="#9948BC" stroke-linecap="square"/>
<path d="M52 68H63" stroke="#9948BC" stroke-linecap="square"/>
<path d="M53 66H63" stroke="#9948BC" stroke-linecap="square"/>
<path d="M30 69H39" stroke="#9948BC" stroke-linecap="square"/>
<path d="M56 68H69" stroke="#9948BC" stroke-linecap="square"/>
<path d="M57 67H64" stroke="#9948BC" stroke-linecap="square"/>
<path d="M58 62H66" stroke="#9948BC" stroke-linecap="square"/>
<path d="M58 57H63" stroke="#9948BC" stroke-linecap="square"/>
<path d="M67 45H71" stroke="#9948BC" stroke-linecap="square"/>
<path d="M76 52H85" stroke="#9948BC" stroke-linecap="square"/>
<path d="M65 80H74" stroke="#9948BC" stroke-linecap="square"/>
<path d="M62 80H68" stroke="#9948BC" stroke-linecap="square"/>
<path d="M63 82H69" stroke="#9948BC" stroke-linecap="square"/>
<path d="M63 81H69" stroke="#9948BC" stroke-linecap="square"/>
<path d="M56 80H69" stroke="white" stroke-linecap="square"/>
<path d="M67 82H72" stroke="white" stroke-linecap="square"/>
<path d="M38 46H41" stroke="white" stroke-linecap="square"/>
<path d="M83 46H89" stroke="white" stroke-linecap="square"/>
<path d="M71 25H76" stroke="white" stroke-linecap="square"/>
<path d="M21 25H30" stroke="white" stroke-linecap="square"/>
<path d="M25 24H31" stroke="white" stroke-linecap="square"/>
<path d="M21 5H31" stroke="white" stroke-linecap="square"/>
<path d="M20 11H28" stroke="white" stroke-linecap="square"/>
<path d="M32 20H37" stroke="white" stroke-linecap="square"/>
<path d="M30 66H33" stroke="white" stroke-linecap="square"/>
<path d="M28 65H31" stroke="white" stroke-linecap="square"/>
<path d="M36 71H39" stroke="white" stroke-linecap="square"/>
<path d="M76 84H82" stroke="white" stroke-linecap="square"/>
<path d="M74 85H83" stroke="white" stroke-linecap="square"/>
<path d="M82 84H85" stroke="white" stroke-linecap="square"/>
<path d="M3 44H12" stroke="black" stroke-width="2" stroke-linecap="square"/>
<path d="M5 42H11" stroke="black" stroke-width="2" stroke-linecap="square"/>
<path d="M5 40H13" stroke="black" stroke-width="2" stroke-linecap="square"/>
<path d="M4 39H10" stroke="black" stroke-width="2" stroke-linecap="square"/>
<path d="M4 46H10" stroke="black" stroke-width="2" stroke-linecap="square"/>
<path d="M5 48H7" stroke="black" stroke-width="2" stroke-linecap="square"/>
<path d="M3 49H8" stroke="black" stroke-width="2" stroke-linecap="square"/>
<path d="M6 50H15" stroke="black" stroke-width="2" stroke-linecap="square"/>
<path d="M6 53H11" stroke="black" stroke-width="2" stroke-linecap="square"/>
<path d="M4 48H5" stroke="black" stroke-width="2" stroke-linecap="square"/>
<path d="M4 53H10" stroke="black" stroke-width="2" stroke-linecap="square"/>
<path d="M5 51H8" stroke="black" stroke-width="2" stroke-linecap="square"/>
<path d="M7.31821 60.2382H18.3763" stroke="white" stroke-linecap="square"/>
<path d="M7.7085 59.8479H24.8811" stroke="black" stroke-width="3" stroke-linecap="square"/>
<path d="M69.2631 64.1621H73.8188" stroke="black" stroke-width="3" stroke-linecap="square"/>
</svg>
